<svg xmlns="http://www.w3.org/2000/svg" viewBox="0 0 640 640"><!--!Font Awesome Free 7.1.0 by @fontawesome - https://fontawesome.com License - https://fontawesome.com/license/free Copyright 2026 Fonticons, Inc.--><path d="M624 144C624 117.5 602.5 96 576 96L64 96C37.5 96 16 117.5 16 144L16 496C16 522.5 37.5 544 64 544L576 544C602.5 544 624 522.5 624 496L624 144zM264 352L222.1 288L328 288L328 320L256 320L256 336L320 336L320 368L256 368L256 384L328 384L328 416L224 416L264 352zM200 352L160 416L112 416L112 288L192 288C205.2 288 216 298.8 216 312C216 319.9 211.8 326.8 205.4 330.7C214.6 334.6 221.3 344 221.3 354.7C221.3 365.3 214.6 374.8 205.4 378.7L264 352zM464 332L512 288L528 288L528 416L464 416L464 332zM416 288L416 416L368 416L368 288L416 288zM344 288L344 320L304 320L304 336L368 336L368 368L304 368L304 384L344 384L344 416L288 416L288 288L344 288z"/></svg>
